<?xml version="1.0" encoding="UTF-8" standalone="no"?>
<!-- Generator: Adobe Illustrator 26.0.2, SVG Export Plug-In . SVG Version: 6.00 Build 0)  -->

<svg
   version="1.1"
   x="0px"
   y="0px"
   viewBox="0 0 2676.073 3503.8491"
   xml:space="preserve"
   id="svg97"
   width="2676.073"
   height="3503.8491"
   xmlns:xlink="http://www.w3.org/1999/xlink"
   xmlns="http://www.w3.org/2000/svg"
   xmlns:svg="http://www.w3.org/2000/svg"><defs
   id="defs97" />
<style
   type="text/css"
   id="style1">
	.st0{fill:#6380FF;}
	.st1{fill:#FFFFFF;}
	.st2{opacity:0.2;}
	.st3{clip-path:url(#SVGID_00000008827340586566056590000001619283688111660426_);}
	.st4{fill:#FFB1FF;}
	.st5{fill:#06327B;}
	.st6{fill:#FF6200;}
	.st7{fill:#FFCA26;}
</style>
<path
   style="display:inline;fill:#c7e6f2;fill-opacity:1"
   d="m 1483.5047,5.1727215 c 0,0 -305.672,-77.5585695 -702.58944,428.8532685 -396.91738,506.41187 -538.34772,547.47227 -538.34772,547.47227 0,0 -296.547471,100.36994 -145.992601,520.09864 150.554871,419.7288 0,583.9704 0,583.9704 0,0 -269.173859,556.5968 91.245381,643.2799 360.41923,86.6831 383.23058,209.8644 383.23058,209.8644 0,0 374.10604,775.5857 771.0235,392.3551 396.9173,-383.2306 711.7139,100.3699 711.7139,100.3699 0,0 301.1097,182.4908 415.1664,-31.9359 114.0568,-214.4266 109.4945,-666.0912 -291.9852,-784.7102 -401.4796,-118.619 59.3095,-725.4007 59.3095,-725.4007 l 18.2491,-36.4982 c 0,0 237.238,-396.9174 305.672,-579.4081 68.4341,-182.4908 209.8644,-743.64987 22.8114,-866.83113 C 2395.9584,283.47112 2291.0263,-45.012238 2008.1656,5.1727215 c -282.8607,50.1849605 -524.6609,0 -524.6609,0 z"
   id="path98" />
<g
   id="OBJECTS"
   style="display:inline"
   transform="translate(-53.979931,-191.00484)">
	<g
   id="g14"
   style="display:inline">
		<path
   class="st1"
   d="m 2039.1,1564.4 c -4.8,-7.9 -15.1,-5.3 -18.2,2.4 -13.9,35.4 -8.4,67 -13.2,99.2 -7.6,42.9 -20,81.1 -54.9,111.2 -33.4,28.8 -116.2,35.3 -126.3,98.8 -1.3,8.4 -1.6,16.1 1.6,23.7 1.1,2.6 2.4,6.5 4.2,9.1 2,2.8 10.5,7.7 11.3,4.3 0.7,-3.1 2.2,-3.8 2.7,-7.1 8.6,-57.1 62.5,-53 111.2,-79.6 91.7,-50 120.5,-197.5 81.6,-262 z"
   id="path1"
   style="display:inline;fill:#9ccfe4;fill-opacity:1" />
		<g
   id="g5">
			<path
   class="st1"
   d="m 2109.3,1701.2 c -0.2,0.6 -0.2,0.6 0,0 z"
   id="path2"
   style="fill:#9ccfe4;fill-opacity:1" />
			<path
   class="st1"
   d="m 2138.6,1700.6 c -0.7,-1.6 -10.7,-47.6 -27.3,-38 -8.5,5 -1.7,12.4 -2,38.5 0.3,-0.7 0.3,-0.7 0,0 0,0 0,0 0,0 -6.4,15.4 3.4,11.2 -20.3,64.7 -20.2,45.5 -66.6,129.3 -102.9,171 -2.6,3 -0.2,9.2 4.3,7.4 47.8,-18.9 72.5,-58.7 77.7,-64.1 4.3,-4.5 44.3,-59.4 64.4,-109.4 4.6,-11.6 13.2,-53.8 6.1,-70.1 z"
   id="path3"
   style="fill:#9ccfe4;fill-opacity:1" />
			<path
   class="st1"
   d="m 2106.4,1714.5 c -0.4,2.3 -0.1,0.9 0,0 z"
   id="path4"
   style="fill:#9ccfe4;fill-opacity:1" />
			<path
   class="st1"
   d="m 2068,1880.2 c -0.1,0.2 -0.3,0.3 -0.4,0.5 1.1,-1.2 0.9,-1 0.4,-0.5 z"
   id="path5"
   style="fill:#9ccfe4;fill-opacity:1" />
		</g>
		<g
   id="g7">
			<path
   class="st1"
   d="m 1328.4,854.6 c 4.1,-2.9 3.1,-2.4 0.5,-0.4 -0.2,0.1 -0.4,0.3 -0.5,0.4 z"
   id="path6"
   style="fill:#9ccfe4;fill-opacity:1" />
			<path
   class="st1"
   d="m 1427.1,752.9 c -75.2,-3.7 -310.4,157.8 -335.1,425.6 -0.4,4.5 6.3,4.9 7.6,1 24.9,-73.6 62.3,-141 110,-203.8 105.6,-139.1 206.4,-167.4 224.1,-198.6 10.5,-12.3 4.1,-23.7 -6.6,-24.2 z"
   id="path7"
   style="fill:#9ccfe4;fill-opacity:1" />
		</g>
		<g
   id="g9">
			<path
   class="st1"
   d="m 1334,663.2 c -44.3,1.4 -207.4,99.3 -283.9,284.6 -30,72.8 -30.8,120.4 -25.4,108.7 29.1,-63.9 77.1,-195.1 226.1,-307.8 25.8,-19.5 83.9,-56.7 91.4,-65.7 6.1,-7.3 2.6,-20.2 -8.2,-19.8 z"
   id="path8"
   style="fill:#9ccfe4;fill-opacity:1" />
			<path
   class="st1"
   d="m 1296.2,675.5 c 0.4,-0.1 0.8,-0.2 1.3,-0.3 -0.7,0.1 -1.1,0.2 -1.3,0.3 z"
   id="path9"
   style="fill:#9ccfe4;fill-opacity:1" />
		</g>
		<g
   id="g11"
   style="display:inline">
			<path
   class="st1"
   d="M 919.7,2588.7 C 905.1,2334.5 847,2362.9 769.3,2298.3 c -20.6,-17.1 -34.7,-37.5 -45.7,-61.9 -44.5,-98.9 -38.5,-384.5 -39.3,-392.7 -0.4,-4.2 -6.3,-5.4 -7.6,-1 -5.5,18.3 -12.3,85.6 -13.6,100.9 -30.2,356.2 69.4,381.5 152.1,436.9 40.8,33.7 47.5,66.9 62.9,208.2 1.5,13.9 11.8,65 13.1,75.5 2,16.3 1.1,14.8 5.4,25.6 2.8,6.9 12,7.4 14.6,0 7,-19.8 2.3,-31.7 6.2,-48.8 2.3,-9.8 2.5,-49.7 2.3,-52.3 z"
   id="path10"
   style="fill:#9ccfe4;fill-opacity:1" />
			<path
   class="st1"
   d="m 723,2235 c 0,-0.1 0,-0.1 0,0 z"
   id="path11"
   style="fill:#9ccfe4;fill-opacity:1" />
		</g>
		<path
   class="st1"
   d="m 594.8,2345.4 c -31.1,-60.9 -31.3,-121 -40.9,-146 -1.9,-5.1 -2.8,-10 -3.8,-15.4 -0.8,-4.2 -7.2,-3.1 -7.3,1 -0.3,12.2 -7.8,44.7 3.2,106.6 20.5,115.4 70.1,130.9 120.8,229.3 34.5,66.9 34.5,104.9 47.9,135.3 0,-0.1 2.6,12.4 6.8,20.3 4,7.6 21.7,10.3 21.2,-15.8 -3,-153.2 -108.3,-237.8 -147.9,-315.3 z"
   id="path12"
   style="fill:#9ccfe4;fill-opacity:1" />
		<path
   class="st1"
   d="m 1784.7,2150.4 c -7.9,59.7 -33.7,127.1 -64.3,176 -26.9,43.1 -57.2,74.6 -95.8,107.1 -67.1,56.6 -256.6,169.6 -238.1,330 7.5,65.1 40.4,123 106.6,135.9 14.3,2.8 18.5,-15.1 8.6,-20.3 -29.4,-15.5 -62.9,-56.4 -72.2,-111.2 -26.9,-235.5 362.4,-273.4 363.2,-617.4 0,-5.4 -7.4,-5 -8,-0.1 z"
   id="path13"
   style="fill:#9ccfe4;fill-opacity:1" />
		<path
   class="st1"
   d="m 1736,2537.6 c -16.6,3.3 -52.8,22.1 -54.4,23.1 -26.8,16.8 -50.8,37.6 -74.9,69.1 -87.5,114.1 -9.7,194.1 46.7,179.4 4.9,-1.3 3.8,-8.7 -1.2,-8.7 -39.4,-0.1 -96.8,-58.5 -23.8,-154.3 43.4,-57 106.5,-89 113.8,-93.9 7.6,-5.2 2.9,-16.4 -6.2,-14.7 z"
   id="path14"
   style="display:inline;fill:#9ccfe4;fill-opacity:1" />
	</g>
	<g
   class="st2"
   id="g27"
   style="display:none">
		<g
   id="g17">
			<path
   class="st1"
   d="m 267,2008.5 c 0.4,-1 0.4,-1 0,0 z"
   id="path15" />
			<path
   class="st1"
   d="m 271.6,1987.3 c 0.6,-3.6 0.2,-1.5 0,0 z"
   id="path16" />
			<path
   class="st1"
   d="m 332.7,1723.3 c 0.2,-0.3 0.5,-0.5 0.7,-0.8 -1.7,1.9 -1.4,1.6 -0.7,0.8 z"
   id="path17" />
		</g>
		<g
   id="g19">
			<path
   class="st1"
   d="m 1511,3357.1 c -6.5,4.6 -5,3.9 -0.8,0.6 0.3,-0.1 0.6,-0.4 0.8,-0.6 z"
   id="path18" />
			<path
   class="st1"
   d="m 1603,3313.6 c 119.8,5.9 494.5,-251.3 533.9,-678 0.7,-7.2 -10,-7.9 -12.1,-1.6 -39.7,117.3 -99.2,224.6 -175.2,324.7 -168.3,221.5 -328.8,266.7 -356.9,316.4 -17,19.5 -6.8,37.7 10.3,38.5 z"
   id="path19" />
		</g>
		<g
   id="g21">
			<path
   class="st1"
   d="m 1744.6,3476.4 c 70.6,-2.2 330.4,-158.2 452.3,-453.4 47.9,-115.9 49,-191.8 40.5,-173.1 -46.4,101.8 -122.8,310.8 -360.2,490.3 -41,31 -133.6,90.3 -145.7,104.7 -9.6,11.5 -4.1,32 13.1,31.5 z"
   id="path20" />
			<path
   class="st1"
   d="m 1562.3,3642.4 c -0.7,0.2 -1.4,0.4 -2,0.5 1.1,-0.2 1.7,-0.4 2,-0.5 z"
   id="path21" />
		</g>
		<g
   id="g25">
			<path
   class="st1"
   d="m 2266.6,366.3 c 23.3,404.9 115.8,359.7 239.6,462.6 32.9,27.3 55.2,59.7 72.8,98.7 71,157.5 61.3,612.5 62.6,625.6 0.7,6.7 10,8.6 12.1,1.6 8.7,-29.2 19.6,-136.4 21.7,-160.8 48.2,-567.5 -110.6,-607.8 -242.2,-696 -65,-53.6 -75.7,-106.6 -100.3,-331.7 -2.4,-22.1 -18.8,-103.5 -20.9,-120.3 -3.2,-25.9 -1.8,-23.6 -8.6,-40.8 -4.4,-11.1 -19.1,-11.8 -23.3,0 -11.2,31.5 -3.7,50.6 -10,77.8 -3.5,15.5 -3.7,79.2 -3.5,83.3 z"
   id="path22" />
			<path
   class="st1"
   d="m 326.4,2210.9 c 98.4,-393.4 -3.3,-377.8 -90.9,-513 -23.2,-35.8 -34.9,-73.5 -40.1,-115.9 -20.8,-171.5 124,-602.9 126.7,-615.8 1.4,-6.5 -7,-11.2 -11,-5.2 -17,25.3 -59.4,124.4 -68.6,147 -215.1,527.4 -75.6,613.1 23.8,736.5 46.1,70.6 40.5,124.3 -3.1,346.5 -4.3,21.8 -12.9,104.4 -15.9,121.1 -4.6,25.7 -5.3,23.1 -3.9,41.5 0.9,11.9 14.7,16.9 22.2,6.9 20.1,-26.7 18.6,-47.2 32.7,-71.3 7.9,-13.6 27.1,-74.3 28.1,-78.3 z"
   id="path23" />
			<path
   class="st1"
   d="m 2763.9,1619.4 c -80.1,397.6 20.8,377.3 114.5,508.2 24.9,34.7 38.3,71.8 45.4,113.9 28.7,170.4 -96,608 -98.1,621 -1.1,6.6 7.5,10.9 11.3,4.6 15.8,-26 53.6,-127 61.8,-150 190.5,-536.7 47.2,-616 -57.8,-734.7 -49.3,-68.4 -46.2,-122.3 -12.9,-346.3 3.3,-22 8,-104.9 10.3,-121.7 3.5,-25.9 4.2,-23.3 2,-41.6 -1.5,-11.8 -15.5,-16.2 -22.5,-5.9 -18.8,27.6 -16.4,48 -29.4,72.7 -7.5,14.3 -23.8,75.8 -24.6,79.8 z"
   id="path24" />
			<path
   class="st1"
   d="m 2475.4,1158.1 c 0,0.2 0,0.1 0,0 z"
   id="path25" />
		</g>
		<path
   class="st1"
   d="M 634.8,1225.7 C 647.4,1130.5 688.6,1023.3 737.3,945.3 780.2,876.6 828.5,826.5 889.9,774.7 996.7,684.4 1298.7,504.6 1269,249 1257,145.3 1204.6,53.1 1099.1,32.6 c -22.7,-4.4 -29.5,24.1 -13.7,32.4 46.9,24.7 100.2,89.9 115.1,177.1 42.9,375.2 -577.3,435.6 -578.6,983.6 0.1,8.5 11.8,7.9 12.9,0 z"
   id="path26" />
		<path
   class="st1"
   d="m 515.1,844.6 c 26.5,-5.2 84.1,-35.2 86.7,-36.8 42.6,-26.7 80.9,-59.9 119.4,-110.1 139.4,-181.7 15.5,-309.1 -74.4,-285.8 -7.8,2 -6.1,13.9 1.9,13.9 62.8,0.2 154.2,93.3 38,245.8 -69.2,90.8 -169.7,141.7 -181.4,149.6 -12.2,8.3 -4.6,26.3 9.8,23.4 z"
   id="path27" />
	</g>
	<g
   id="g66"
   style="display:none">
		<defs
   id="defs27"><rect
     id="SVGID_1_"
     width="3000"
     height="3700"
     x="0"
     y="0" /></defs>
		<clipPath
   id="SVGID_00000139284780695911009510000007769125508607439006_">
			<use
   xlink:href="#SVGID_1_"
   style="overflow:visible"
   id="use27" />
		</clipPath>
		<g
   clip-path="url(#SVGID_00000139284780695911009510000007769125508607439006_)"
   id="g29">
			<path
   class="st4"
   d="m 3045.3,3188.2 c -26.1,77.2 -85.9,137.4 -126.3,135 -17.3,-1 -21.3,-5.5 -137.9,-75.6 176.9,-89.6 203.9,-99.7 227.9,-129.7 17.9,-22.4 -6.2,-34 -30.2,-25.2 -166.7,61.1 -176,235.8 -410.7,59 71.4,-111.9 232.6,-105.6 334.9,-114.8 108.4,-9.7 -136.5,-100.1 -314,19.5 -28.9,19.5 -44.5,22.1 -67.6,-11.6 -38.5,-56.3 -70.4,-117 -94.8,-180.6 848.2,214 351,-41.4 88.6,-11.6 -80.2,9.1 -120.3,14 -147.3,-202.1 173.7,-1.6 494.7,233.6 502.2,178.5 1.4,-10.4 -56.4,-93.4 -181.4,-147.6 -133.1,-57.8 -248.8,-58.3 -292.1,-96.2 -55.6,-48.5 -30.6,-132.6 -40.4,-197.6 136.2,85.5 264.7,186.5 431.1,313.9 -80,-159.2 -309.9,-200.4 -375.9,-368.5 -27.2,-69.3 -15.2,-142.5 -19,-214.5 65.5,-7.6 189.3,119.5 223.7,171.8 64.2,97.4 25.5,117.1 184.6,342.6 75,106.2 45.7,56.5 -7.8,-61.3 -59.1,-130.1 -119.5,-262.5 -214.5,-369.3 24.3,-15.2 54.1,-19.7 82.8,-17.8 135.3,8.9 135.7,43.7 162.6,174.9 40.9,199.8 64.8,399.7 96.1,402.7 31.3,3 -15.2,-143.1 -30.4,-209.9 -24.4,-107.7 -24.4,-228.3 -79.1,-326 28.5,1.4 55,14.2 80.6,26.8 88.9,43.8 114.6,71.4 122,180.9 21.4,314.9 -30.9,388.6 5.1,431 14.4,-71 44.3,-398.8 12.2,-517.2 26.3,2.8 48.1,20.8 68.2,38 63.4,54.5 71.2,79.9 61.7,147.1 -37.7,265.7 -115.9,359.7 -96.5,374.9 37,29 133.7,-284 117.5,-429.3 61.7,27.2 146.9,136.9 125.3,209.8 -34.9,117.6 -153.6,186.1 -226,278.2 83.7,31.3 112.4,-170.7 299.9,-233.9 -108.8,94.5 19.2,188.5 -120.5,259.9 -62.1,31.7 -148.1,30.7 -173.8,40.8 -26.8,10.4 -9.5,62.4 -40.8,155 z"
   id="path28" />
			<path
   class="st1"
   d="m 3154.7,2861.6 c 82.6,-107.1 92.2,-301.8 87.1,-273.2 -59.4,328.8 -149.3,298 -201.1,389.6 -33.8,-44 -26.6,-11.1 11.2,-112.2 94.3,-251.6 39.4,-465.2 43.7,-424.4 27,260.1 -59.4,441.8 -84.8,496.7 -19.1,-26.1 -32.5,-45.2 -51.9,-73.2 45.7,-443.4 -84.4,-571.7 -66.2,-538.3 91.8,169 58.8,413.6 56.5,524.3 -122.6,-176.8 -43.1,-150.6 -182,-477.2 -47.5,-111.7 -61.6,-119.9 -57.1,-111.4 89.2,171.4 133,351.6 167.8,485.3 -22.9,-31.4 -42.6,-52.8 -133.8,-158.5 -195.8,-226.9 -208.7,-303.9 -292.9,-396.3 157.6,295 284.7,402.5 406.7,567 -383.1,-247.3 -414.7,-215.7 -408.6,-214.3 142.2,32.5 320.8,172.6 424.2,235.5 24.7,34 47.9,67.4 70.4,100.4 -164.3,-13.8 -230.2,-69.6 -372.7,-104.4 -83.7,-20.4 -123,-11.8 -108.1,-11.3 162.4,5.9 423.3,154.6 483.5,119.7 16.2,23.7 32.1,47.2 48.1,70.6 -146.9,70.6 -319.2,-68 -459.3,12.6 -1.8,1.1 -0.1,3.8 1.8,2.8 141.9,-77 337.6,69.6 464,-6 9,13.1 18.1,26.2 27.3,39.3 -5,12.9 -58.8,42 -78.3,50.1 -70.3,29.2 -126.7,16.6 -193.1,43.8 -61.8,25.3 -90.5,63.5 -77.9,52.6 120.2,-104 273.6,-39.5 355.4,-137.9 3.3,4.7 6.6,9.3 9.9,14 -22.1,51.4 -3.5,175.6 -141.8,234.7 -13.7,5.9 110.9,0.5 137.9,-181.2 17.9,-120.6 -11.3,19.1 333.7,300.7 22,18 40.2,3.3 20.9,-17.6 -433.8,-469.2 -357.2,-297.1 -193,-399.7 83.9,-52.4 86.7,-123.6 78.6,-102 -43.1,114.3 -177.9,131.7 -217.2,144.7 -33.5,-41.8 -18,-3.9 91.1,-145.3 z"
   id="path29" />
		</g>
		<g
   clip-path="url(#SVGID_00000139284780695911009510000007769125508607439006_)"
   id="g31">
			<path
   class="st4"
   d="m 699.2,-90 c 81.4,-4.6 159.5,28.3 172.4,66.7 5.5,16.4 2.9,21.8 -18.6,156.2 C 703.8,2.4 684.4,-18.9 647.6,-29.9 620.1,-38.1 618.3,-11.4 635.5,7.5 754.5,139.2 920,82.5 843.7,366.4 713.2,342 658.8,190.1 612.1,98.6 c -49.5,-96.9 -41.8,164 135.5,284 28.9,19.5 37.2,33 14.5,67 C 724.3,506.3 679.9,558.6 630,605.1 511.4,-261.6 460.4,295 586,527.2 c 38.4,71 57.9,106.3 -132.4,212.2 -66.4,-160.5 31.7,-546.2 -22.2,-532.5 -10.2,2.6 -65.6,87.3 -69.1,223.4 -3.8,145.1 38.9,252.5 20,306.9 -24.2,69.7 -111.6,78 -168.2,111.4 C 242.4,690.3 288.1,533.4 344,331.4 226.4,465.2 274,693.8 142.9,817.8 88.8,869 16.4,885.2 -49,915.6 -80.6,857.8 -9,695.4 26.7,643.9 93,547.9 125.8,576.5 275.5,344.6 346,235.4 310.8,281.1 221.6,374.7 123,478.1 22.8,583.7 -40.7,711.7 -63.9,694.8 -79.2,668.8 -88.1,641.6 -130.4,512.8 -98.3,499.4 13.4,425.4 183.4,312.8 359.9,215.9 351,185.7 c -8.9,-30.2 -127,67.6 -183.3,106.6 -90.8,62.9 -202.6,108 -272.8,195.2 -9.4,-26.9 -7.4,-56.3 -5.3,-84.8 C -103,303.9 -87,269.7 11.7,221.9 295.8,84.3 383.7,105.3 409.5,56 338.2,69.2 23.1,164 -74.8,238 -82.1,212.6 -73.5,185.6 -65,160.5 -38.2,81.3 -17.5,64.5 48.3,48.3 308.7,-16 425.1,21.4 432,-2.3 445,-47.4 118.6,-20.1 -10.2,49.2 -8,-18.1 61.9,-138.2 137.6,-145.4 c 122,-11.6 230,72.9 342.5,105.6 -2.2,-89.4 -200.4,-40.4 -329.1,-190.7 128.4,65.6 167.6,-88.3 286.1,14.6 52.7,45.7 83.9,125.9 102.9,146 19.8,21 61.7,-14.5 159.2,-20.1 z"
   id="path30" />
			<path
   class="st1"
   d="M 355.4,-69.4 C 225.2,-106 41,-42.1 69.4,-48.1 396.6,-115.9 401.6,-21 506,-7.2 477.8,40.6 505.7,21.7 397.7,24.3 129.1,30.9 -48.5,161.6 -12.3,142.5 218.8,20.2 419.7,32.4 480.1,35.5 463,63 450.3,82.5 431.6,111 3.4,234.4 -67.1,403 -42.9,373.7 79.5,225.4 318.7,164.6 422.3,125.3 304.1,305.1 298.7,221.5 47.8,472.5 c -85.9,85.9 -88.2,101.9 -81.9,94.6 125.7,-146.8 276.4,-254.8 387.3,-337 -20.6,33 -33,59.3 -97,183.4 C 118.9,679.8 52.3,720.6 -1.9,833.3 212.8,576.8 265.1,418.8 372,244.1 c -86.1,447.8 -45,465.3 -46,459.1 -23.1,-144 40.1,-362.1 59.8,-481.5 22.3,-35.7 44.6,-69.6 66.8,-102.8 48.7,157.6 21.5,239.5 42.5,384.7 12.3,85.3 35,118.5 29.9,104.5 -55.2,-152.8 -14.9,-450.4 -69.7,-493.2 15.9,-23.8 31.8,-47.4 47.5,-71 120.4,109.9 56.3,321.5 183.4,421.3 1.7,1.3 3.5,-1.3 1.9,-2.7 -124.5,-102.9 -61.7,-339.1 -179,-428.1 8.8,-13.3 17.6,-26.6 26.3,-40 13.8,-0.2 60.9,38.9 75.7,53.9 53.4,54.3 62.8,111.3 112.9,162.7 46.6,47.9 92.7,60.3 77.9,52.6 -141.4,-72.6 -139,-239 -260.7,-278.1 3.1,-4.8 6.2,-9.6 9.3,-14.5 55.9,1.3 164.2,-62.4 270.7,43.8 10.5,10.5 -41,-103 -219.6,-60.2 -118.6,28.4 22,3.3 154.2,-421.9 8.4,-27.2 -11.9,-38.6 -24.1,-12.8 -273,577.8 -142,442.4 -298.6,328.5 -80,-58.2 -147,-34.2 -124,-34.8 121.9,-2.7 188.4,115.9 215.2,147.5 -26.3,46.4 3,17.8 -168.9,-30.5 z"
   id="path31" />
		</g>
		<g
   clip-path="url(#SVGID_00000139284780695911009510000007769125508607439006_)"
   id="g48">
			<path
   class="st4"
   d="m 182.3,2551.4 c -25.2,-35.6 14.5,-51.8 8.5,-68.6 -1.9,-5.4 -38.6,-29.2 -19.3,-50.2 9,-9.8 33.5,-9.3 24.6,-54.5 -3.2,-16.5 -7.3,-51.5 9.7,-51.2 27.7,0.5 -2.5,106.3 24,114.4 1.5,0.5 41,-3.7 24.9,28.7 -4.9,9.8 -20.3,25.6 -16,35 3.4,7.3 28.4,8.4 19.9,33.2 -11.6,34.1 -54.4,44 -76.3,13.2 z"
   id="path32" />
			<path
   class="st4"
   d="m 131,2569.4 c 0.6,-32.9 69.7,48.9 76.4,50.6 33.5,8.7 59.3,-65.6 79.4,-60.6 6.4,1.6 7.1,10.4 5.8,16.9 -20.3,96 -163.5,98.8 -161.6,-6.9 z"
   id="path33" />
			<path
   class="st4"
   d="m 102.6,2694.4 c -23.4,-20 -22.6,-36.7 -13.2,-44.8 26.2,-22.8 46.7,37.1 73.2,37.7 9.1,0.2 18.6,-5.2 26.9,-1.4 11.4,5.3 14.4,25.7 26.9,24 16.6,-2.2 26.2,-43.7 44.2,-56.2 15,-10.4 37.3,-8.6 49.4,-22.3 5.3,-6 7.6,-14 12.4,-20.3 8.3,-11 24,-12.3 26,6.2 7.6,70.6 -136.3,170.8 -245.8,77.1 z"
   id="path34" />
			<path
   class="st4"
   d="m 112.6,2794 c -8.9,-14.1 -34.7,-4.2 -54,-20.2 -25.2,-20.8 -1.5,-52.4 25,-39.3 16.2,8 25,29.7 43,31.3 11.6,1 22.8,-7.2 34.3,-5.2 22.2,4 30.1,42.5 52.2,37.9 18.3,-3.8 19.6,-34.6 37.9,-38.9 8.7,-2 17.5,3.2 26.4,2.5 26.4,-1.9 26.5,-46.8 51.1,-56.6 70.9,-28.1 74.5,23.7 37.8,44.1 -144.3,80 -94.3,78.6 -194.9,76.1 -34.1,-0.8 -41.7,-4.5 -58.8,-31.7 z"
   id="path35" />
			<path
   class="st4"
   d="m 51.4,2833 c 91.1,71.8 26.8,-39.1 167.3,50.6 15.5,-46.9 66.1,-38.4 73.2,-40.4 23,-6.3 24.5,-43.3 46.9,-51.6 9.9,-3.6 21.2,-0.4 31.2,-3.7 18.5,-6.1 35.8,-49.6 50.4,-43.4 10.2,4.3 12.3,28.1 -6.4,44.2 -11.9,10.3 -27.4,15.9 -38.7,26.9 -69.4,67.9 -36.7,95.7 -168.2,98.4 -18.6,0.4 -39.6,7.2 -57.9,4.7 -23.2,-3.2 -30.9,-18.3 -53.8,-20.2 -97.2,-8.2 -80.8,-94.6 -44,-65.5 z"
   id="path36" />
			<path
   class="st4"
   d="m 183.7,2959 c -14.2,4.7 -26.2,-10.7 -39.7,-17.1 -27.7,-13.2 -83.7,17.8 -96.1,-19.2 -14.6,6.2 -14.2,29.2 -2.5,39.8 29.3,26.5 62.6,-9.6 124.5,24.7 70.8,39.2 69.6,28.7 105.3,0.7 10.5,-8.3 21.1,-11 32.4,-19.1 7.7,-5.6 12.3,-14.4 18.9,-21.2 20.1,-20.3 56.5,-19.2 72.9,-42.5 7.2,-10.2 9.1,-23.6 17,-33.4 16.3,-20.1 72.9,-23.5 64,-57.3 -52.6,-34.8 -89.6,63.9 -131.3,79.9 -12.7,4.9 -28,5.8 -37,16.1 -85,98.2 -73.9,30.4 -128.4,48.6 z"
   id="path37" />
			<path
   class="st4"
   d="m 138.7,3004.8 c -36.8,1.6 -21.1,37.2 -92.6,-6.1 -47.8,-28.9 -73.2,24.1 -31.8,39.6 28.4,10.6 61.8,-11.7 89.6,1.4 11.8,5.6 20.3,17 32.6,21.3 22.4,8 48.2,-10 70.3,-1.2 32.4,12.9 34.3,47 67.5,9.2 21.3,-24.2 63.9,-13.3 88.7,-33.9 14,-11.6 19.9,-31.6 35.2,-41.4 12.2,-7.8 28,-7.7 40.9,-14.3 12.1,-6.3 20.4,-18 31.5,-25.9 19.7,-14.1 51.9,-17.4 59.7,-42.9 3.7,-12 -3.3,-27.7 -15.9,-29 -54.1,60.7 -103.3,44.6 -135,75.6 -14.1,13.8 -21.1,35.1 -38.7,43.9 -17.5,8.7 -36.5,9.2 -54.2,19.1 -92.4,51.7 -108.6,-17.2 -147.8,-15.4 z"
   id="path38" />
			<path
   class="st4"
   d="m 133.5,3106.4 c -26.3,2 -48.6,46 -73.7,27.1 -8.6,-6.4 -11.3,-19.8 -21.4,-23.4 -10.8,-3.8 -22.9,6.6 -33.7,2.7 -5.8,-2.1 -10.4,-8.1 -16.5,-7.4 -7.3,0.8 -9.8,10.6 -7.8,17.6 13.9,48 83,13.1 117.5,23.5 16.8,5.1 31.6,18.7 49.1,17.2 21,-1.7 40.1,-25 59.2,-16 89.4,42.1 78.9,-14.8 106.7,-27.2 11,-4.9 24.4,-2.4 35,-8.2 12.1,-6.6 17.2,-22.1 29.3,-28.7 16.2,-8.8 38,1.9 54.1,-7.1 11,-6.2 15.5,-19.5 24,-28.9 19.5,-21.5 56.3,-19 75,-41.5 9.7,-11.7 11.3,-32.6 -3.7,-39.2 -70.3,75.4 -130.6,59.2 -169.4,101.2 -18.3,19.8 -29.4,16.2 -53.3,22.9 -15.9,4.5 -28,16.9 -43.6,21.1 -9.5,2.6 -18,0.1 -27.3,0.9 -13.1,1.2 -23.8,8 -36.1,9.4 -23.8,3 -40.4,-17.7 -63.4,-16 z"
   id="path39" />
			<path
   class="st4"
   d="m 249.3,3192.6 c -90.7,-18.5 -78.3,33.6 -114.3,25.2 -9.6,-2.3 -52.2,-40.6 -96.8,-3.4 25.5,58.1 90.3,10.4 103.7,9.7 24.8,-1.3 46.4,25.7 70.5,19.7 16.1,-4 27.5,-22 44.1,-21.1 14,0.8 24.7,15.4 38.8,15.1 18.5,-0.4 27.1,-25.2 44.8,-30.8 11.3,-3.6 23.6,1.5 35.2,-0.7 27.2,-5.2 36,-45.5 63.2,-51 12,-2.5 24.5,2.8 36.5,0.4 23.9,-4.9 32.4,-36 54,-47.3 18.4,-9.6 53.1,-3.2 45.3,-75.5 -32.4,2.7 -45.9,43.7 -73.8,60.4 -31.3,18.7 -79.8,6.2 -100.5,36.3 -15.7,22.9 -12.2,30.8 -38.1,22 -50.1,-17 -30.7,57.7 -112.6,41 z"
   id="path40" />
			<path
   class="st4"
   d="m 280.5,3266.8 c -8.6,7.1 -14.6,17.7 -24.9,22 -16.7,7 -34.9,-5.3 -53,-6.5 -17.9,-1.1 -30.2,11.9 -48.1,11.5 -16,-0.4 -30.4,-12.2 -46.5,-12.8 -20.4,-0.7 -40.6,3.6 -60.9,4.9 -3.2,25.2 23.6,49.3 48.3,43.4 10.4,-2.5 19.8,-9.2 30.5,-9.9 21.2,-1.3 37.6,21.1 58.9,22.2 21.5,1.1 40.4,-19.8 61.5,-15.9 5.7,1.1 11,3.9 16.7,4.7 21.6,3 39.4,-23 61,-19.8 30.4,4.4 17.4,5.5 35.3,-15.1 15.1,-17.3 46.3,-6 64.2,-20.3 8.7,-7 12.5,-18.9 21.3,-25.8 17.7,-13.8 45.4,-1.2 65.2,-11.8 18.5,-9.9 22.8,-35.7 40.1,-47.6 10.4,-7.2 24.5,-8.6 33.1,-17.8 12.2,-13 9.9,-37.7 26.1,-45 5.6,-2.5 12.4,-2.2 17.2,-6.1 15.4,-12.3 -13.6,-47.8 -40.6,-8.9 -6.9,9.9 -11.5,21.5 -19.9,30.1 -26.2,26.8 -77.5,15.5 -100.5,45 -18.2,23.4 -9.9,36.2 -47.8,33.8 -45.5,-2.8 -68.7,47.3 -105.1,47.3 -12.4,0.2 -19.4,-12.1 -32.1,-1.6 z"
   id="path41" />
			<path
   class="st4"
   d="m 345,3346.9 c -32.4,4.3 -40.3,40.3 -71.7,41.4 -22,0.7 -44.4,-20.4 -63.4,-9.4 -11.1,6.5 -16.8,22.7 -29.6,23.2 -13.6,0.5 -20.4,-17 -33,-22.2 -18.4,-7.7 -38.8,13.9 -57.8,8 -7.4,-2.3 -14.3,-8.7 -21.8,-6.8 -8.8,2.2 -11,14.5 -7.1,22.8 18.3,38.8 74.1,8.3 105.6,14.1 22.5,4.1 41.5,22.5 64.5,22.4 26.3,-0.1 47.6,-24.7 73.9,-25.1 12.1,-0.2 24.7,4.8 36.1,0.7 13.6,-5 22.6,-22.2 37.1,-20.8 6.2,0.6 11.7,4.8 17.9,5 19.6,0.6 19.5,-31.2 34.7,-43.7 13,-10.8 33.2,-3.8 49,-9.7 21.9,-8.2 28.2,-37.6 48.1,-50 11.6,-7.3 28,-9 34.4,-21.1 5.1,-9.5 1.8,-22.4 8.4,-31 14.9,-19.6 57,7.9 70.6,-89.7 -30.3,1.4 -40.2,42.5 -65.6,59.1 -11.9,7.8 -27.8,10.5 -36,22.1 -6.5,9.2 -6.4,21.6 -11.9,31.3 -16.5,28.8 -66.2,15.2 -88,40.3 -5.6,6.5 -9.2,15.4 -17,18.8 -7.4,3.2 -16.5,-1.5 -23.3,1.4 -15.1,6 7.2,10.9 -54.1,18.9 z"
   id="path42" />
			<path
   class="st4"
   d="m 387.6,3439.7 c -28.5,35.6 -34,7.6 -65.6,6.5 -29.2,-1 -49.7,40.1 -78.1,33.5 -11.3,-2.6 -20.8,-12.7 -32.3,-11.2 -16,2 -24.3,25.2 -40.4,24.4 -9.7,-0.5 -16.2,-9.6 -24.5,-14.7 -22.8,-14.1 -64.8,7.7 -69.8,14.1 -11.3,14.3 9.2,45.5 51,34.6 20.3,-5.3 39.8,-16.7 60.6,-14.8 22.4,2.1 42.6,19.6 64.8,16.1 22.3,-3.6 40.1,-27.8 62.2,-23.4 7.9,1.6 14.8,6.8 22.8,7.9 25.9,3.7 24.1,-23.6 77.9,-26 32.8,-1.5 80.4,-26.9 86.5,-37.3 2.4,-4.2 3.4,-9 5.7,-13.3 12.3,-23 53.4,-17.1 64,-40.9 4.5,-10.2 1.3,-22.5 5.6,-32.9 8.3,-20.1 39.9,-23.3 46,-44.1 9.2,-31.6 -15.9,-14.2 29.2,-51.6 18.5,-15.3 21.8,-45.8 7.1,-64.7 -19.7,11.8 -34.2,31.8 -39.2,54.2 -10.3,45.4 -18,26.5 -38,44.1 -11.7,10.3 -11.7,29.2 -22.4,40.5 -15.5,16.4 -48.2,12 -57.2,32.7 -7.7,17.6 2.5,27.5 -26,29.9 -21.4,1.8 -24.9,21.4 -41.1,27.4 -16.9,6 -33.5,-10.1 -48.8,9 z"
   id="path43" />
			<path
   class="st4"
   d="m 407.7,3538.6 c -13.6,1.5 -27.8,-2.8 -40.7,1.7 -18.8,6.6 -28.7,29.9 -48.2,33.7 -21.6,4.3 -42.6,-17.9 -63.8,-11.8 -16.2,4.7 -25.2,24.7 -41.9,27.4 -10,1.6 -105.9,-33.8 -85.7,4.6 27.9,53.1 76.5,16.3 104.6,20.4 23.3,3.4 41.4,27.2 64.9,25.5 26.1,-1.8 40.6,-33.3 65.8,-40.2 22.6,-6.2 49.4,8.5 68.8,-4.5 6.9,-4.7 11.5,-12.2 18.5,-16.7 23.3,-14.9 57.2,11.1 80.5,-3.7 17.1,-10.8 18.1,-37.7 35.4,-48.1 10.7,-6.4 25.6,-5 34.2,-14 10.5,-11 4.7,-29.5 10.4,-43.5 9.2,-22.6 44.1,-26.3 52.2,-49.3 4.5,-12.8 -1.2,-27.3 2.7,-40.3 6.3,-20.9 34.9,-30.9 36.6,-52.7 0.6,-8.3 -3.1,-16.5 -2.9,-24.8 0.5,-15.6 14.1,-27.1 22.6,-40.2 8.5,-13.1 8.1,-36.1 -7.3,-38.9 -28.8,-5.3 -22.3,45.7 -29.4,59.6 -8.8,17.3 -32.7,23 -40.6,40.6 -6.7,14.8 0.4,32.3 -3.3,48.2 -5.9,25.9 -33.8,34.7 -52.5,49.2 -9.3,7.2 -16.4,19.8 -25.5,25.8 -13.1,8.7 -27.6,2.2 -36.3,21 -18.6,40.1 4.7,26.1 -73.7,50.9 -16,5.1 -28.4,16.5 -45.4,20.1 z"
   id="path44" />
			<path
   class="st4"
   d="m 480.1,3643.2 c -24,16.6 -62.1,-7.1 -84.4,11.8 -7.3,6.2 -11.4,16.1 -19.8,20.6 -17.2,9.2 -39.3,-9.7 -57.2,-2 -8.9,3.8 -14.2,13.2 -22.6,17.8 -18.9,10.3 -88.7,-21.2 -67.6,12.8 43.1,69.1 112.4,7.4 138.3,7.6 16.7,0.1 32.8,10.5 49.1,7.1 19.9,-4.2 31.4,-27.1 51.1,-32.3 15.7,-4.1 33.3,4.1 48.2,-2.3 16.2,-6.9 22.8,-28.2 39.4,-34 18.3,-6.4 46.9,8.7 60.3,-9.3 6,-8.1 9,-18.8 17.1,-24.8 7.2,-5.4 62.5,-12 64.6,-65 0.5,-12.1 -2.5,-24.3 -0.1,-36.2 5.9,-28.4 39.4,-42.4 51.4,-68.7 10.4,-22.8 2.9,-51.1 14.5,-73.3 10.2,-19.6 35.1,-32.3 -5.3,-92.3 -14,7.6 -18,25.8 -17.9,41.7 0.6,93.1 -38.9,58.7 -57.4,105.8 -5.5,14 -2.4,30.4 -8.5,44.2 -10.4,23.5 -43.8,32.3 -49.7,57.4 -6.2,26.3 12.5,38.1 -22.1,55.4 -20.6,10.3 -8.3,24.1 -47.1,24.1 -64.8,-0.3 -52,18.5 -74.3,33.9 z"
   id="path45" />
			<path
   class="st4"
   d="m 597.8,3702.3 c -52.9,42.1 -38.6,11.9 -67.7,17.7 -17.8,3.6 -22.4,29.2 -39.2,36 -18.6,7.6 -40.5,-12 -58.9,-3.9 -9.8,4.4 -14.9,15.3 -23.1,22.2 -22.8,19.2 -128.2,-4.8 -98.2,38.3 24.9,35.9 74.5,-2.8 109.9,3.6 11.4,2.1 22.1,8.3 33.7,8.2 29.9,-0.2 46.6,-39.8 76.2,-43.7 15.9,-2.1 33.2,6.8 47.5,-0.4 7.9,-3.9 13.1,-12 20.5,-16.8 19.4,-12.5 48.6,-0.1 66.5,-14.6 12,-9.7 14.8,-29 28.8,-35.5 10.7,-5 25.6,-1.3 32.9,-10.5 5.1,-6.3 3.6,-15.6 5.7,-23.4 6.2,-22.7 38.7,-25.9 52.3,-45.1 14.7,-20.7 2.2,-51.1 13.2,-74 8.2,-17 29.1,-29.8 26.3,-48.4 -1.8,-12.5 -14.5,-22.1 -14.2,-34.8 0.3,-13 13.8,-21.6 19,-33.5 12.7,-28.8 -25.7,-65.5 -6.7,-90.7 -4.1,-11.6 -36.5,-13.8 -28.2,29.6 10.1,53.2 -23.2,41.4 -25.9,69.1 -1.2,11.7 8.3,22.1 9,33.8 1.8,30.1 -49.7,41.6 -48.6,71.7 0.4,10 7.1,19.4 5.9,29.4 -2.1,17.9 -24.2,23.8 -32.8,37.7 -9.7,15.7 -3.8,38.5 -17.5,52.1 -21.3,21.5 -61.4,6 -86.4,25.9 z"
   id="path46" />
			<path
   class="st4"
   d="m 667.2,3796.9 c -7.4,8.3 -21.1,-1.5 -32,0.6 -14.9,2.9 -17.1,25.5 -30.9,31.8 -23.9,10.8 -35.8,-27.8 -68.1,4.1 -12.9,12.7 -30.1,21.1 -48.1,23.5 26.4,42.8 75.2,18 84.2,16.3 14.4,-2.8 29.3,0.8 44,1.6 47.5,2.3 41.2,-30.2 53,-42.5 15.7,-16.3 49.7,-1 62.5,-19.7 7.3,-10.7 2.5,-27.2 11.4,-36.6 10.9,-11.5 34.6,-3.9 42.8,-17.6 3.7,-6.2 2.1,-14.2 3.8,-21.2 7.3,-30.2 62.4,-21.5 73.4,-50.6 4.2,-11.1 -0.2,-23.9 3.4,-35.1 11.6,-36.6 42.4,-9.5 27,-83.9 -3,-14.5 0.6,-33.7 15,-37 -4.6,-19.6 -38,-22 -45.4,-3.3 -7,17.6 8,38.6 0,55.8 -7.8,16.9 -33.6,20 -40.1,37.5 -4.9,13.2 3.8,28.9 -1.9,41.8 -7.6,17.2 -31.2,16.6 -43.1,29.5 -13.3,14.4 -10.2,36.7 -27.2,48.7 -12.4,8.8 -31.3,7.2 -45.3,12.5 -26.8,10 -22.7,26 -38.4,43.8 z"
   id="path47" />
			<path
   class="st1"
   d="M 897.8,3823 C 183.9,3375.5 243.2,2939.9 219.3,2496.1 c -6.5,-120.9 -16.1,12.1 -13,134 10.2,402.5 27,661.6 399.1,1023.5 81.6,79.4 173.1,149.1 274.9,204.9 19,10.4 31.3,-26.9 17.5,-35.5 z"
   id="path48" />
		</g>
		<g
   clip-path="url(#SVGID_00000139284780695911009510000007769125508607439006_)"
   id="g65">
			<path
   class="st4"
   d="m 2872.4,876.6 c 30.3,31.4 -6.6,53.4 1.8,69.1 2.7,5 42.6,23.1 26.6,46.8 -7.4,11 -31.7,14.2 -16.2,57.5 5.7,15.9 14.9,49.8 -2,52.1 -27.5,3.6 -13.3,-105.5 -40.8,-109.5 -1.6,-0.2 -40,9.8 -28.9,-24.7 3.3,-10.4 16.2,-28.3 10.6,-37 -4.4,-6.8 -29.3,-4 -24.6,-29.9 6.4,-35.4 47.3,-51.6 73.5,-24.4 z"
   id="path49" />
			<path
   class="st4"
   d="m 2920.4,851.2 c 4.3,32.6 -76.2,-38 -83.1,-38.7 -34.4,-3.6 -48.9,73.7 -69.5,71.7 -6.6,-0.6 -8.6,-9.2 -8.2,-15.8 5.8,-97.9 147,-122 160.8,-17.2 z"
   id="path50" />
			<path
   class="st4"
   d="m 2929.9,723.4 c 26.1,16.3 27.8,32.9 19.7,42.4 -22.5,26.5 -51.7,-29.7 -78,-26.4 -9,1.2 -17.6,7.9 -26.4,5.3 -12.1,-3.5 -18.1,-23.3 -30.2,-19.8 -16.1,4.7 -19.4,47.1 -35.3,62.2 -13.3,12.5 -35.6,14 -45.5,29.4 -4.3,6.7 -5.4,15 -9.2,22 -6.6,12.1 -21.9,15.7 -26.6,-2.2 -18.2,-68.7 109.2,-189.2 231.5,-112.9 z"
   id="path51" />
			<path
   class="st4"
   d="m 2905.2,626.4 c 10.9,12.6 34.9,-1 56.5,11.9 28,16.8 9.3,51.6 -18.8,42.6 -17.2,-5.5 -29.2,-25.6 -47.2,-24.5 -11.6,0.7 -21.5,10.5 -33.1,10.2 -22.5,-0.6 -36.1,-37.6 -57.2,-29.7 -17.6,6.5 -14.3,37.2 -31.6,44.1 -8.3,3.3 -17.8,-0.6 -26.5,1.4 -25.8,5.9 -19.2,50.2 -42.1,63.6 -65.9,38.4 -77.3,-12.4 -44,-38 130.8,-100.7 81.5,-91.8 181.4,-104.3 33.6,-4.2 41.6,-1.6 62.6,22.7 z"
   id="path52" />
			<path
   class="st4"
   d="m 2959.9,578.7 c -100.8,-57.4 -20.7,42.7 -173,-25.1 -8.4,48.7 -59.7,47.9 -66.4,50.8 -21.8,9.7 -17.7,46.5 -38.7,58 -9.2,5.1 -20.9,3.5 -30.4,8.3 -17.4,8.7 -28,54.4 -43.4,50.4 -10.8,-2.8 -16.4,-26 -0.2,-44.6 10.3,-11.9 24.8,-19.8 34.3,-32.4 58.5,-77.5 22,-100.1 151.6,-122.4 18.3,-3.2 38.1,-13.1 56.6,-13.3 23.4,-0.3 33.3,13.5 56.3,12 97.3,-6.2 94,81.5 53.3,58.3 z"
   id="path53" />
			<path
   class="st4"
   d="m 2810.3,473.8 c 13.3,-6.8 27.5,6.7 41.8,11 29.3,8.9 80.2,-30.1 97.9,4.6 13.5,-8.3 9.7,-31 -3.4,-39.7 -32.9,-21.9 -60.5,18.8 -126.7,-5.9 -75.8,-28.2 -73.1,-18 -104.2,15 -9.2,9.8 -19.3,14 -29.2,23.7 -6.8,6.6 -10,16.1 -15.6,23.8 -16.8,23 -53,27.4 -65.8,52.9 -5.6,11.2 -5.5,24.7 -11.8,35.5 -13.1,22.3 -68.6,34.1 -54.7,66.2 57.2,26.6 79.1,-76.5 118,-98.6 11.8,-6.7 26.9,-9.9 34.1,-21.4 69.2,-109.7 68.4,-41 119.6,-67.1 z"
   id="path54" />
			<path
   class="st4"
   d="m 2847.9,421.9 c 36.1,-7.1 15.3,-39.9 92.4,-7.8 51.6,21.5 68.8,-34.8 25.5,-43.9 -29.7,-6.3 -59.4,20.8 -88.8,12 -12.5,-3.7 -22.6,-13.7 -35.5,-16.2 -23.3,-4.6 -46.2,17 -69.3,11.6 -33.9,-7.9 -40.9,-41.4 -68.1,0.9 -17.4,27.1 -61.2,22.7 -82.7,46.7 -12.1,13.6 -14.9,34.2 -28.6,46.2 -10.9,9.6 -26.6,11.8 -38.3,20.3 -11,8 -17.5,20.8 -27.3,30.3 -17.4,16.8 -48.7,24.9 -52.6,51.3 -1.9,12.5 7.4,26.9 20,26.3 44.4,-68 95.5,-59.5 122.2,-94.8 11.8,-15.7 15.6,-37.8 31.7,-49.2 16,-11.3 34.7,-14.5 50.7,-26.9 84,-65 110.3,0.7 148.7,-6.8 z"
   id="path55" />
			<path
   class="st4"
   d="m 2838,320.5 c 25.7,-5.9 41.2,-52.7 68.9,-37.8 9.4,5.1 14.1,17.9 24.6,19.9 11.3,2.1 21.7,-9.9 32.9,-7.7 6,1.2 11.5,6.4 17.4,4.8 7.1,-1.9 8.1,-11.9 5.1,-18.6 -20.9,-45.4 -84.1,-0.6 -119.7,-5.7 -17.4,-2.5 -34.1,-13.8 -51.1,-9.7 -20.5,4.8 -35.9,30.7 -56.1,24.7 -94.7,-28.3 -75.8,26.4 -101.5,42.8 -10.2,6.5 -23.8,6 -33.4,13.3 -11,8.3 -13.7,24.4 -24.7,32.7 -14.7,11.1 -37.9,3.8 -52.4,15.1 -10,7.8 -12.4,21.6 -19.4,32.2 -16.1,24.2 -52.9,27.1 -68,52.2 -7.8,13 -6.3,33.9 9.5,38.2 58.3,-85 120.4,-78 152.5,-125.3 15.1,-22.3 26.7,-20.4 49.3,-30.5 15,-6.8 25.1,-20.8 40,-27.4 9,-4 17.8,-2.8 26.9,-5 12.7,-3.1 22.4,-11.5 34.3,-14.7 22.9,-6.3 42.4,11.7 64.9,6.5 z"
   id="path56" />
			<path
   class="st4"
   d="m 2710.6,252.6 c 92.4,4.8 72.5,-44.9 109.3,-41.9 9.8,0.8 57.7,32.4 96.2,-11.1 -33.9,-53.6 -90.9,3.2 -104,5.8 -24.4,5 -49.7,-18.6 -72.6,-9 -15.3,6.4 -23.9,25.9 -40.4,27.5 -14,1.3 -26.8,-11.5 -40.6,-9.1 -18.3,3.2 -23.1,28.9 -39.7,37.1 -10.6,5.2 -23.6,2.1 -34.7,6 -26.1,9.2 -28.8,50.3 -54.8,59.9 -11.5,4.2 -24.6,0.9 -36.1,5.1 -22.9,8.4 -26.7,40.4 -46.3,54.8 -16.7,12.2 -52,11.1 -33.5,81.4 31.6,-7.5 38.9,-50 64,-70.7 28.2,-23.2 78,-18 94,-50.8 12.2,-25 7.5,-32.2 34.4,-27.5 51.6,9.2 21.3,-61.8 104.8,-57.5 z"
   id="path57" />
			<path
   class="st4"
   d="m 2668.7,183.9 c 7.4,-8.3 11.8,-19.6 21.4,-25.5 15.4,-9.5 35.3,0.1 53.4,-1.5 17.9,-1.5 28.1,-16.3 45.9,-18.5 15.9,-2 31.8,7.6 47.9,5.7 20.2,-2.3 39.6,-9.6 59.5,-14 -0.6,-25.4 -30.7,-45.3 -54.2,-35.7 -10,4 -18.2,12.1 -28.7,14.3 -20.8,4.5 -40.4,-15.3 -61.5,-13.2 -21.4,2.1 -37,25.6 -58.5,24.9 -5.8,-0.2 -11.4,-2.2 -17.2,-2.2 -21.8,0.2 -35.5,28.6 -57.3,28.7 -30.8,0.1 -18,-2.9 -32.7,20.1 -12.3,19.3 -44.9,12.8 -60.4,29.7 -7.6,8.2 -9.6,20.5 -17.3,28.7 -15.5,16.3 -44.7,8 -62.8,21.4 -16.8,12.5 -17.3,38.7 -32.5,53.1 -9.2,8.6 -22.9,12.2 -30.1,22.5 -10.1,14.6 -4.2,38.8 -19.1,48.4 -5.1,3.3 -11.9,4.1 -16.1,8.6 -13.4,14.4 20.6,45.3 41.4,2.8 5.3,-10.8 8.2,-23 15.2,-32.7 21.9,-30.4 74.4,-26.9 92.7,-59.5 14.5,-25.9 4.4,-37.2 42.2,-40.6 45.4,-4 60.9,-57 96.8,-62.4 12.2,-2 21,9.2 32,-3.1 z"
   id="path58" />
			<path
   class="st4"
   d="m 2593,114.3 c 31.4,-9 33.9,-45.8 64.7,-51.6 21.6,-4 47,13.6 64.1,-0.2 10,-8.1 13.2,-24.9 25.9,-27.3 13.3,-2.6 22.7,13.7 35.9,17 19.3,4.8 36.3,-19.5 56,-16.5 7.7,1.2 15.4,6.5 22.6,3.5 8.4,-3.5 8.7,-16 3.7,-23.6 -23.8,-35.6 -74.5,2.8 -106.5,1.8 -22.9,-0.7 -44.4,-16.1 -67.1,-12.5 -26,4.1 -43.4,31.5 -69.3,35.8 -12,2 -25.1,-1.1 -35.7,4.7 -12.7,7 -19.1,25.3 -33.6,26.1 -6.2,0.3 -12.2,-3 -18.4,-2.2 -19.5,2.3 -14.7,33.8 -27.8,48.4 -11.3,12.6 -32.2,8.7 -47,16.9 -20.5,11.4 -22.3,41.3 -40.1,56.6 -10.4,8.9 -26.3,13.1 -30.9,26 -3.6,10.2 1.5,22.4 -3.7,31.9 -11.8,21.6 -57.5,0.7 -56.4,99.2 29.7,-5.9 33.5,-48 56,-68.2 10.6,-9.5 25.9,-14.5 32.3,-27.2 5.1,-10 3.1,-22.3 7.1,-32.8 12,-30.9 63.2,-24.9 81,-53 4.6,-7.2 6.8,-16.6 14,-21.1 6.9,-4.3 16.5,-0.9 22.8,-4.8 13.7,-8.4 -9,-9.9 50.4,-26.9 z"
   id="path59" />
			<path
   class="st4"
   d="m 2537,28.8 c 22.9,-39.5 32.5,-12.6 63.9,-16.2 29,-3.4 43.1,-47.1 72.3,-44.8 11.5,0.9 22.5,9.4 33.6,6.3 15.6,-4.4 20.2,-28.6 36.3,-30.1 9.6,-0.9 17.5,7.1 26.4,10.9 24.6,10.6 62.9,-17.3 66.9,-24.3 9.1,-15.8 -15.8,-43.6 -55.5,-26.6 -19.3,8.2 -36.8,22.5 -57.7,23.6 -22.4,1.2 -45.1,-13 -66.5,-6.2 -21.5,6.9 -35.5,33.5 -58.1,32.4 -8.1,-0.4 -15.7,-4.5 -23.7,-4.4 -26.1,0.2 -20.3,26.9 -73.1,37.3 -32.2,6.3 -75.5,38.6 -80,49.8 -1.8,4.5 -2.1,9.4 -3.7,14 -8.7,24.6 -50.3,24.8 -57.2,50 -3,10.8 2,22.5 -0.7,33.4 -5.2,21.1 -36,29 -38.9,50.5 -4.4,32.7 17.8,11.7 -21.2,55.4 -16,17.9 -14.8,48.5 2.6,65.1 17.7,-14.6 29,-36.6 30.7,-59.4 3.4,-46.4 13.8,-28.9 31,-49.3 10,-11.9 7.2,-30.6 16.1,-43.4 12.9,-18.5 45.8,-19 51.7,-40.8 5,-18.5 -6.5,-26.8 21.2,-33.4 20.9,-5 21.4,-24.9 36.6,-33.2 16,-8.8 34.7,4.6 47,-16.6 z"
   id="path60" />
			<path
   class="st4"
   d="m 2502.4,-65.9 c 13.2,-3.5 27.9,-1.4 40,-7.7 17.6,-9.3 24,-33.8 42.7,-40.6 20.7,-7.5 44.8,11.4 64.8,2.1 15.3,-7.1 21.2,-28.1 37.3,-33.3 9.7,-3.1 109.8,17.6 84.1,-17.3 -35.5,-48.3 -78.1,-4.7 -106.5,-4.6 -23.6,0.1 -45,-20.7 -68,-15.6 -25.5,5.7 -35.2,39 -59.1,49.6 -21.4,9.5 -50.1,-1.1 -67.4,14.7 -6.1,5.6 -9.5,13.8 -15.8,19.3 -20.8,18.2 -58.2,-2.4 -79.1,15.6 -15.3,13.2 -12.3,40 -27.9,52.8 -9.6,7.9 -24.6,8.7 -31.7,18.9 -8.7,12.4 -0.2,29.8 -3.8,44.6 -5.7,23.8 -39.7,32.6 -44.2,56.6 -2.5,13.3 5.3,26.8 3.4,40.2 -3.1,21.6 -29.9,35.8 -28.4,57.6 0.6,8.3 5.5,15.8 6.5,24.1 1.9,15.5 -9.9,28.9 -16.3,43.1 -6.4,14.2 -2.6,36.9 13,37.4 29.3,0.9 15.3,-48.5 20.2,-63.3 6.1,-18.4 28.9,-27.6 34.1,-46.2 4.4,-15.6 -5.2,-31.9 -4,-48.1 2,-26.4 28.2,-39.4 44.5,-56.5 8.1,-8.5 13.3,-22 21.4,-29.3 11.7,-10.6 26.9,-6.3 32.7,-26.2 12.4,-42.4 -8.5,-25.1 65.3,-61.3 15.4,-7.5 25.9,-20.5 42.2,-26.6 z"
   id="path61" />
			<path
   class="st4"
   d="m 2415.2,-158.5 c 21.2,-20 62.4,-2.3 81.7,-24.2 6.3,-7.2 8.8,-17.6 16.5,-23.4 15.7,-11.7 40.3,3.7 56.9,-6.5 8.2,-5.1 12.1,-15.1 19.7,-20.9 17.1,-13 90.9,7.7 64.9,-22.7 -52.9,-61.9 -112.3,9.5 -137.8,13.1 -16.5,2.4 -34,-5.5 -49.6,0.3 -19.1,7.1 -27,31.5 -45.7,39.6 -14.9,6.4 -33.5,0.9 -47.3,9.5 -15,9.2 -18.4,31.3 -33.9,39.5 -17.1,9 -47.7,-1.7 -58.3,18.2 -4.8,8.9 -6.1,19.9 -13.2,27.1 -6.3,6.4 -60,21.1 -54.2,73.9 1.3,12 6.1,23.7 5.5,35.8 -1.6,28.9 -32.7,47.8 -40.6,75.6 -6.9,24.1 4.8,50.9 -3.4,74.7 -7.2,20.9 -29.9,37.2 19,90.5 12.7,-9.6 14,-28.2 11.5,-43.9 -14.4,-92 29.8,-63.9 41,-113.2 3.3,-14.7 -2.1,-30.5 1.8,-45 6.8,-24.8 38.5,-38.5 40.6,-64.1 2.2,-26.9 -18.1,-35.9 13.6,-58.1 18.8,-13.2 4.6,-25.1 42.9,-30.8 64.1,-9.9 48.7,-26.5 68.4,-45 z"
   id="path62" />
			<path
   class="st4"
   d="m 2290.1,-199.5 c 46,-49.5 36.4,-17.5 64.3,-27.6 17.1,-6.2 17.8,-32.2 33.3,-41.5 17.3,-10.3 41.8,5.8 58.8,-4.9 9.1,-5.8 12.5,-17.3 19.6,-25.4 19.7,-22.4 127.5,-14.4 91.4,-52.5 -30,-31.7 -73.3,13.9 -109.2,12.8 -11.6,-0.4 -23.1,-4.9 -34.6,-3.1 -29.5,4.7 -40.1,46.3 -68.9,54.5 -15.4,4.4 -33.8,-1.8 -46.9,7.4 -7.3,5.1 -11.1,13.8 -17.8,19.7 -17.3,15.3 -48,7.3 -63.6,24.4 -10.4,11.4 -10.4,30.8 -23.2,39.4 -9.8,6.5 -25.1,5.1 -31,15.2 -4.1,7 -1.2,15.9 -2.2,24 -2.8,23.4 -34.4,31.4 -45,52.4 -11.5,22.7 5.4,50.8 -2.1,75.1 -5.6,18 -24.3,33.8 -18.8,51.8 3.7,12.1 17.6,19.7 19.2,32.3 1.7,12.9 -10.4,23.4 -13.8,36 -8.2,30.4 35.1,61 20.1,88.7 5.7,10.8 38.1,8.2 23.5,-33.4 -18,-51.1 16.7,-44.4 15.3,-72.2 -0.6,-11.7 -11.5,-20.6 -13.9,-32.1 -6.3,-29.5 43,-48.6 37.4,-78.2 -1.8,-9.9 -9.9,-18.1 -10.2,-28.2 -0.6,-18 20.4,-27.2 26.9,-42.2 7.3,-17 -2,-38.6 9.6,-54.1 18,-24.2 60,-14.8 81.8,-38.3 z"
   id="path63" />
			<path
   class="st4"
   d="m 2207.3,-282.6 c 6,-9.4 21.1,-1.6 31.6,-5.4 14.3,-5.1 13.1,-27.8 25.8,-36 22,-14.2 39.5,22.1 66.8,-14.2 10.9,-14.5 26.6,-25.4 44.1,-30.4 -32.5,-38.4 -77.1,-6.6 -85.7,-3.6 -13.9,4.9 -29.1,3.5 -43.7,5 -47.3,4.8 -36.2,36 -46.1,49.9 -13.1,18.4 -49,8.4 -58.8,28.8 -5.6,11.7 1.6,27.2 -5.8,37.9 -9.1,13 -33.7,9 -39.7,23.7 -2.7,6.7 0.1,14.3 -0.6,21.6 -2.7,31 -58.5,30.6 -65,61 -2.5,11.6 3.8,23.6 1.9,35.2 -6,37.9 -40.5,15.8 -14.2,87 5.1,13.9 4.4,33.4 -9.4,38.8 7.5,18.7 40.8,16.1 45.3,-3.5 4.3,-18.4 -13.7,-37 -8.3,-55.2 5.2,-17.9 30.2,-24.8 34,-43 2.9,-13.8 -8.1,-28 -4.4,-41.6 4.9,-18.2 28.4,-21.1 38.2,-35.5 11,-16.2 4.7,-37.8 19.6,-52.2 11,-10.6 29.9,-11.7 42.9,-19.1 25.1,-14.1 18.7,-29.3 31.5,-49.2 z"
   id="path64" />
			<path
   class="st1"
   d="M 1975.4,-274.2 C 2748,62 2754.2,501.6 2844,936.8 c 24.5,118.5 14.1,-14.4 -7.1,-134.4 -70,-396.5 -125.3,-650.2 -547.1,-952.6 -92.5,-66.3 -193.3,-121.7 -302.4,-161.6 -20.3,-7.5 -26.9,31.2 -12,37.6 z"
   id="path65" />
		</g>
	</g>
	<g
   id="g97"
   style="display:inline">
		<g
   id="g67">
			<path
   class="st5"
   d="m 2149.4,658 c 9.2,-9.7 19.4,-19.1 32,-23.9 7.1,-2.7 8.5,-1.7 6.8,-2.5 -52.5,-23.5 -111.4,49.1 -120.4,90.1 -7.2,33.3 37.4,38.5 60.9,46.5 21.5,-60.3 -19.7,-67.7 20.7,-110.2 z"
   id="path66" />
			<path
   class="st1"
   d="m 2188.8,632 c -15.7,3.1 -28.4,14.4 -39.4,26 -24.4,25.6 -19.2,36.3 -15.8,56.3 5.7,33.7 -6.4,53.5 -4.2,54.3 14.8,5.2 27.7,14.8 40,24.6 50.9,40.5 48.2,-22.3 51.4,-42 4.6,-28.1 17.5,-96.2 -32,-119.2 z"
   id="path67" />
		</g>
		<path
   class="st6"
   d="m 2336.4,1051.6 c -0.4,6.7 -1.1,13.4 -2.1,20 -3.1,20 -9.4,38.7 -17.8,56.5 -26.1,55.5 -72.9,102.7 -110.4,152.9 -11.6,15.6 -22.5,31.8 -35.8,45.9 -33.2,35.2 -87.3,59.5 -136.4,55.1 -16.1,-1.4 -35.1,-13.4 -50.9,-7.1 -21.4,8.5 -30.5,43.3 -32,63.4 -4.9,65.5 59.7,194 -184.7,306.9 -40.8,18.8 -111.8,46 -122,108.8 -5.5,33.9 10.6,66.9 23.5,98.7 52.1,128.6 -26.1,283.3 -108.1,380.3 -88.8,105 -194.1,178 -270.5,255.2 -11.6,11.7 -22.6,23.5 -32.7,35.6 -36.6,43.5 -62.4,89.8 -70,145.1 -0.9,6.4 -1.5,13 -1.9,19.6 -1.6,28.3 1.6,57.2 10,84.7 26.8,87.9 106,161.5 247.6,155.8 24.6,-1 51,-4.4 79.3,-10.5 9.3,-2 18.7,-4.3 28.2,-6.8 v 0 c 87.8,-22.9 185.4,-63.1 285.8,-65 41.6,-0.8 83.8,5 126,21.4 2.8,1.1 5.6,2.2 8.5,3.4 20.3,8.6 39,18.2 55.9,29.6 30.6,20.6 55.6,47 74.3,83.3 45.9,89.1 -50.5,168.8 -135.3,118.7 -9.3,-5.5 -18.9,-14.1 -30.6,-23.4 -30.3,-24.1 -74.4,-53 -162.6,-44.3 -4.8,0.5 -9.7,1.1 -14.8,1.8 -29.4,4.1 -59.4,12.1 -91.7,20.7 -84.7,22.7 -185.3,49.9 -332.5,23.4 -9.5,-1.7 -18.9,-3.6 -28.3,-5.8 -21,-4.9 -41.8,-11 -61.9,-18.3 v 0 c -91.5,-33.5 -170,-93.4 -202.6,-186.5 -57.9,-165.4 64.6,-366.6 3.5,-510.1 -2.6,-6.1 -5.5,-11.9 -8.6,-17.6 -13.4,-24.4 -31.6,-45.8 -50.8,-66.7 -22.5,-24.5 -46.6,-48.1 -66.2,-74.8 -31.8,-43.2 -51.6,-94 -68.4,-145 -79,-241.1 -60.6,-417.8 -1.7,-554 8.4,-19.4 17.6,-38 27.5,-55.8 25.8,-46.6 56,-87.9 87.9,-125.4 17.3,-20.4 35,-39.6 52.8,-57.8 55.8,-57.4 111.5,-105.2 152.5,-149.6 10.6,-11.4 20.2,-22.7 28.6,-33.8 3.6,-4.8 7.1,-9.6 10.2,-14.4 12.3,-18.6 22.6,-38.4 33.1,-58.1 5.4,-10.1 10.9,-20.2 16.8,-30 1.8,-3 3.6,-6 5.5,-8.9 66.4,-105.1 178.3,-180.6 300.8,-202.5 31.7,-5.6 51.2,-27.5 79.2,-43.4 151.7,-86.5 212.5,-116 377.3,-108.7 70.4,3.1 118.2,25.2 171.5,68.6 80.2,65.2 150.8,166.3 145,268.9 z"
   id="path68" />
		<path
   class="st1"
   d="m 2334.2,1071.7 c -12.8,81.9 -78.7,143 -128.2,209.5 -11.6,15.6 -22.5,31.8 -35.8,45.9 -33.2,35.2 -87.3,59.5 -136.4,55.1 -16.1,-1.4 -35.1,-13.4 -50.9,-7.1 -21.4,8.5 -30.5,43.3 -32,63.4 -4.9,65.5 59.7,194 -184.7,306.9 -40.8,18.8 -111.8,46 -122,108.8 -5.5,33.9 10.6,66.9 23.5,98.7 52.1,128.6 -26.1,283.3 -108.1,380.3 -156.6,185.3 -364.7,270.9 -375.2,455.5 -4.9,86.3 36.9,185.5 141.4,224.1 -39,-5.2 -76.6,-17.5 -105.1,-43.9 -93.7,-86.6 -79.8,-340.6 87.9,-541.6 97.8,-117.2 208.1,-206.8 243.3,-398.8 26.9,-146.5 -15.8,-210.3 141.8,-309.7 103.8,-65.4 208.7,-135.9 227.2,-267.3 19.2,-136.2 -94.5,-119.8 -173.6,-138.4 -62.6,-14.7 -115,-66.1 -131.1,-128.3 26.7,0.9 60.8,-3.2 68.1,-28.9 7.6,-26.8 -22.5,-50.5 -23.9,-78.3 -2.8,-55.4 116.5,-101.7 186.3,-89.1 156.8,28.2 86.4,286.1 208.4,234.7 116.4,-49.1 72.6,-50.5 39.7,-138.8 -35.4,-95.1 -53.4,-125.4 10.4,-153.6 48.5,-21.5 136.8,-29.5 154.8,-79.3 51.1,62.6 86.6,140.9 74.2,220.2 z"
   id="path69" />
		<g
   id="g71">
			<path
   class="st1"
   d="m 1653,861.9 c -20.5,-32.8 2,-60.8 -11.3,-78.7 -13.5,-18.1 -49.4,-6.9 -72.7,18.3 -1.1,67.1 19.7,121.9 41.4,128 24.6,6.9 25.6,-15 56.3,-53.3 -5.5,-3.7 -10.2,-8.7 -13.7,-14.3 z"
   id="path70" />
			<path
   class="st5"
   d="m 1712.3,756.9 c -29.5,-20.8 -67.6,-29.2 -102.7,-19.3 -34.1,9.5 -40.1,28.8 -40.6,64 23.4,-25.2 59.2,-36.4 72.7,-18.3 13.3,17.9 -9.1,45.9 11.3,78.7 3.5,5.6 8.2,10.5 13.7,14.3 8.5,-10.6 19.3,-22.5 33.6,-35.4 23.7,-21.5 39.9,-64.3 12,-84 z"
   id="path71" />
		</g>
		<path
   class="st5"
   d="m 1940.8,1130.2 c -7.6,-38.2 -17.4,-80.1 -49.1,-102.7 -23.1,-16.6 -53.9,-19.2 -81.8,-13.6 -61.8,12.5 -104.2,58.6 -137.9,39.8 1.9,13.2 12.5,22.4 25.5,25.3 13,2.9 26.5,1.1 39.8,0.6 10.4,-0.3 12.4,2.8 17.2,13 13.3,28.6 42.7,47.8 73.7,53.2 30.9,5.5 84.1,-2.1 112.6,-15.6 z"
   id="path72" />
		<path
   class="st7"
   d="m 1905.4,1087.4 c -18.9,58.8 -143.2,20.7 -131.4,-31.1 18.5,-9.7 24.1,-14 45,-12.9 0.6,22.6 7.1,37.2 21.6,51.5 8.9,-14.4 6.7,-38.3 4.8,-52.2 12.9,1.9 36.2,3 46.9,10.5 10.7,7.4 17.1,21.7 13.1,34.2 z"
   id="path73" />
		<path
   class="st5"
   d="m 2077.5,1267.2 c -26.9,-12.5 -40.3,-34.2 -52,-25.3 -8,6 -6.4,32 -35.7,0.5 -13.8,-14.8 -18.1,-32.7 1.3,-44 20.1,-11.7 42.4,-5.4 63.6,-6.1 25.9,-0.9 58.5,-41.5 84.7,-19.6 10.4,8.7 8.6,30.5 4,42 -7,17.6 -16.2,2.5 -17.3,1.5 -9.9,-8.5 -22.1,10 -24.7,17.8 -2.5,8 -1.6,43.4 -23.9,33.2 z"
   id="path74" />
		<path
   class="st5"
   d="m 2199.5,1194.7 c 10.3,31 -2.1,63 -14.1,71.1 -15.5,10.5 -76.8,11.5 -98.5,-11 -3.5,47 -88.3,82.4 -137.5,27.8 8.3,66 134.8,56.9 147.7,-11.1 12,18 39.5,23.9 60.9,21 46.6,-6 67,-59.4 41.5,-97.8 z"
   id="path75" />
		<path
   class="st5"
   d="m 2102.5,1077.8 c -53.5,-89.4 -24.2,-157.6 77.5,-157.7 21.5,0 46.3,0.4 60,-16.1 4.2,17.7 -6.5,35 -23.9,40.4 18.9,51.8 -45,118.3 -113.6,133.4 z"
   id="path76" />
		<path
   class="st7"
   d="m 2189.4,943.2 c 21.8,51 -35.7,111.4 -82.6,91.3 -4.4,-22.9 -3.3,-41 10.4,-59.8 3.4,9.2 8.4,17.1 14.2,23.5 7.5,8.3 13.9,13 13.9,13 0,0 5.8,-17.5 -3.6,-49.9 14.5,-5.9 32.4,-15.8 47.7,-18.1 z"
   id="path77" />
		<path
   class="st5"
   d="m 1753.8,834.1 c 5.4,-17.3 24.5,-25.5 41.6,-31.6 140.6,-50.5 124.8,24.7 164.5,-18.7 25.1,-27.5 58.7,-54 95.5,-48.4 -21.6,9.9 -36.9,37.6 -48.9,58.1 -37.1,63.3 -69.2,42.5 -97.8,31.8 -47.2,-17.7 -111.7,-17 -154.9,8.8 z"
   id="path78" />
		<path
   class="st5"
   d="m 2078,839.6 c -72,14.4 -77.8,71.5 -112.3,70.5 -16.6,-0.5 -94.8,-48.4 -195,-1.3 -28.2,13.2 -53.2,32.3 -81.1,46.1 99.3,25.9 145.8,-31.6 207,-32.2 33.7,-0.3 64.6,17.1 96,29.4 23.1,9.1 -4.6,-28.4 46.3,-59.9 54.5,-33.7 116.1,-2.1 132.1,-71.6 1,-4.3 -0.9,-24.4 0.8,-26.3 -43.6,48.9 -40,34.5 -93.8,45.3 z"
   id="path79" />
		<path
   class="st5"
   d="m 2257,1027.6 c -21.2,24.1 -52.8,39.5 -57,85.7 22.8,-22.9 57.1,-30.7 81.3,-52 24.6,-21.6 45.1,-62.3 21.6,-100.9 -4.1,-6.7 -22.7,-18.8 -24.1,-24.2 7.6,30.2 0.2,66.3 -21.8,91.4 z"
   id="path80" />
		<path
   class="st5"
   d="m 2336.4,1051.6 c -0.4,6.7 -1.1,13.4 -2.1,20 -3.1,20 -9.4,38.7 -17.8,56.5 -13.7,6.7 -31,8.6 -51.8,14.1 -15.6,4.2 -31.3,11.3 -40.5,24.5 8.3,-55 57,-69.8 76.6,-81.2 7.6,-4.3 23.3,-18.6 35.6,-33.9 z"
   id="path81" />
		<path
   class="st5"
   d="m 1595.7,1078.4 c 0,35.9 26.6,70.4 89.9,74 42.1,2.4 113.9,-11.6 147.4,33.9 -70.6,-28.3 -154.6,4.7 -225,-23.9 -62.8,-25.5 -68.7,-82.2 -26.8,-134.6 15.6,-19.5 23.2,-37.4 25.4,-63.3 13,13.5 7.5,58.6 0.4,76.2 -5.3,13.2 -11.3,22.4 -11.3,37.7 z"
   id="path82" />
		<path
   class="st5"
   d="m 1856.6,1259.5 c -49.4,-25.4 -112.6,-0.5 -163.7,-22.2 -37.7,-16 -66.3,-56.3 -107.3,-56.6 18.5,56.4 71.6,100.8 130.9,103.1 39.3,1.6 83.2,-17.7 158.2,6.5 -2.6,-15.3 -4.2,-23.6 -18.1,-30.8 z"
   id="path83" />
		<path
   class="st5"
   d="m 1470.9,1213.1 c 37.2,56 136.9,108 195,236.7 29.6,65.6 39.7,141.9 17.5,210.4 -19.7,-77.8 -55.8,-175.5 -106.3,-238.6 -94.5,-118 -263.8,-175.3 -119.3,-441.7 -8.3,72.3 -29.6,169 13.1,233.2 z"
   id="path84" />
		<path
   class="st5"
   d="m 1586.9,1724.9 c -89.3,-83.4 -329.3,-45 -418.5,-510.9 10.6,-11.4 20.2,-22.7 28.6,-33.8 44.3,150.8 61,177.3 99.8,200.1 10.5,6.1 15.7,3.1 18.1,-5.8 10.4,-38.6 -11.3,-158.3 -74.5,-266.8 5.4,-10.1 10.9,-20.2 16.8,-30 1.8,-3 3.6,-6 5.5,-8.9 100.2,79.1 109.9,235 128.2,332.7 12.9,69 26.1,80.5 68.5,125.4 54.1,57.3 97.6,124.9 127.5,198 z"
   id="path85" />
		<path
   class="st5"
   d="m 968.8,1425.1 c -2,-1.2 -3.9,-2.5 -5.8,-3.8 17.3,-20.4 35,-39.6 52.8,-57.8 88.2,42.8 67,129.7 -47,61.6 z"
   id="path86" />
		<path
   class="st5"
   d="m 1660.1,1982.6 c -200.6,-5 -333,-219.2 -385.8,-250.1 -142.5,-83.5 -244.8,-44.8 -318.4,-61.4 -35.1,-7.9 -82.3,-33.8 -108.1,-68.4 8.4,-19.4 17.6,-38 27.5,-55.8 22.8,18.2 43.4,39.5 71.4,49.8 57.3,21.2 219,-16 363,67.4 56.1,32.5 107.3,76.8 142.1,130.9 38.2,59.5 95.5,99.4 208.3,187.6 z"
   id="path87" />
		<path
   class="st5"
   d="m 1234.3,1897.4 c 52.9,36.3 82.4,104.5 123.7,158.8 57.1,75.2 141.3,129.3 233.4,149.9 -55.9,-116.4 -122.6,-231.5 -222.6,-313.1 -115.7,-94.4 -186.9,-46.7 -297.6,-72.4 -30.5,-7.1 -60.5,-20.2 -91.7,-17.3 -79.5,7.6 -190.3,139.3 -148.7,162.4 33.2,18.5 251.8,-172.5 403.5,-68.3 z"
   id="path88" />
		<path
   class="st5"
   d="m 917.9,2184.4 c 63.7,-3.7 116.3,-55.6 179.7,-62.3 47.3,-5 94.6,16.6 129.6,48.8 69.7,63.9 111.3,182.8 268.6,174.4 -79.7,-72.3 -169.4,-187.7 -248.5,-241.9 -39.5,-27 -90.7,-41.6 -136,-26 -24.6,8.5 -45.9,25.2 -71.1,32 -39.7,10.9 -92.6,-5.1 -149.8,34.8 -33.2,23.3 -2.6,42 27.5,40.2 z"
   id="path89" />
		<path
   class="st5"
   d="m 1338.6,2488 c -69.5,-53.2 -199.4,-95.9 -277.8,-57.1 -8.6,4.2 -17.2,8.7 -26.1,12.3 -13.4,-24.4 -31.6,-45.8 -50.8,-66.7 34.5,-14.6 70.1,-26.5 105.9,-37.6 113.5,-35.2 237.2,47.3 248.8,149.1 z"
   id="path90" />
		<path
   class="st5"
   d="m 1289.1,2588.4 c -11.6,11.7 -22.6,23.5 -32.7,35.6 -15.7,-2.8 -29.1,-4.5 -33.3,-5 -88.4,-10.2 -90.6,13.2 -111.5,1.8 -20.9,-11.3 -26.5,-46.3 21.4,-65.2 73.9,-29.2 103.1,-16.7 156.1,32.8 z"
   id="path91" />
		<path
   class="st5"
   d="m 1194.4,2873.3 c -31,26.1 -78.2,23.9 -92.9,-5.3 -11.3,-22.6 0.2,-62.7 40.4,-84.5 10.9,-5.9 28.5,-13.6 44.4,-14.5 -0.9,6.4 -1.5,13 -1.9,19.6 -1.6,28.3 1.7,57.2 10,84.7 z"
   id="path92" />
		<path
   class="st5"
   d="m 1304.3,3175.6 c -21,-4.9 -41.8,-11 -61.9,-18.3 v 0 c -9.9,-25 -16.5,-52.4 -20,-69.1 -7.8,-37.8 19.3,-50.9 43.7,-10.2 9.4,15.8 18,32.1 25.6,48.9 3.3,7.2 9.8,28.7 12.6,48.7 z"
   id="path93" />
		<path
   class="st5"
   d="m 1549.6,3011.9 c -51.6,91.3 -31.4,98.4 -40.2,114.6 -16,29.8 -104.6,13.5 -67.4,-97.4 24.6,-1 51,-4.4 79.3,-10.5 9.4,-2 18.8,-4.2 28.3,-6.7 z"
   id="path94" />
		<path
   class="st5"
   d="m 1771.6,3135.6 c -4.8,0.5 -9.7,1.1 -14.8,1.8 -29.4,4.1 -59.4,12.1 -91.7,20.7 -16,-19.2 -34.6,-50.2 -34.8,-66.4 -0.3,-21.7 18.8,-38.1 36.5,-50.8 8.6,-6.2 19.1,-12.6 29.1,-9 21.5,7.6 33.2,60.9 55.1,83.4 6.7,6.8 15.1,12.4 20.6,20.3 z"
   id="path95" />
		<path
   class="st5"
   d="m 1961.4,2968.2 c -3.5,7.7 -9.2,15.4 -17.5,23 -12.6,11.5 -27.5,20.6 -38.2,33.9 -11.2,13.9 -17.1,31.3 -26.6,46.3 -20.6,32.4 -90.9,-37.4 -51.3,-112.2 2.3,-4.4 4.9,-8.5 7.7,-12.4 41.6,-0.8 83.8,5 125.9,21.4 z"
   id="path96" />
		<path
   class="st5"
   d="m 1964.8,3203.2 c -9.3,-5.5 -18.9,-14.1 -30.6,-23.4 -5.5,-34.5 1.6,-75 26.2,-115.7 14.6,-24.1 38,-48.8 65.4,-63 30.6,20.6 55.6,47 74.3,83.3 46,89.2 -50.4,168.9 -135.3,118.8 z"
   id="path97" />
	</g>
</g>
</svg>
